<svg xmlns="http://www.w3.org/2000/svg" version="1.1">
  <defs>
    <svg id="fiche">
      <path d="M396 470h-63v-18h63q11 0 19 -7.5t8 -18.5v-380q0 -11 -8 -18.5t-19 -7.5h-280q-12 0 -19 7q-8 10 -8 20v379q1 11 8.5 18.5t18.5 7.5h48v18h-48q-18 0 -31.5 -13t-13.5 -31v-379q0 -19 13 -32q14 -14 32 -14h280q19 0 32 13t13 32v379q0 19 -13 32t-32 13zM127 418v-359
h260v359h-71v51h-36q1 3 1 9q0 14 -9 23q-10 10 -23 10t-22.5 -9.5t-9.5 -22.5q0 -7 1 -9h-33v-52h-58zM368 77h-223v323h40v-8h131v8h53zM203 451h27l3 6l7 11q-5 5 -5 10q0 6 4.5 10t9.5 4q10 0 13 -9q3 -8 -4 -15l7 -11l3 -6h30v-33h-95v33zM249 485q-5 0 -6 -4
q-1 -3 1 -7q4 -4 8 -2t4 6q0 7 -7 7zM181 196h150v-19h-150v19zM181 247h150v-18h-150v18zM181 298h150v-18h-150v18zM181 350h150v-19h-150v19zM181 145h150v-19h-150v19z"/>
    </svg>
    <svg id="attestation">
      <path d="M223 218h-14v14q0 6 -6 6h-25q-7 0 -7 -6v-14h-13q-7 0 -7 -7v-24q0 -7 7 -7h13v-14q0 -7 6 -7h25q7 0 7 7v14h13q7 0 7 7v23q2 8 -6 8zM216 193h-13q-7 0 -7 -6v-14h-11v14q0 6 -6 6h-14v11h14q6 0 6 6v14h11v-14q0 -6 7 -6h13v-11zM427 399q-3 -3 -3 -5t3 -5q2 -2 5 -2
t5 2t2 5q0 4 -2 5q-5 5 -10 0zM148 360q0 -7 7 -7h75q7 0 7 7t-7 7h-75q-3 1 -5 -1.5t-2 -5.5zM148 317q0 -7 7 -7h109q7 0 7 7t-7 7h-109q-7 0 -7 -7zM148 274q0 -7 7 -7h148q7 0 7 7q0 6 -7 6h-148q-7 0 -7 -6zM432 370q-7 0 -7 -6v-327q0 -9 -7 -15t-16 -6h-299
q-9 0 -16 6t-7 15v21q0 7 -7 7t-7 -7v-21q0 -14 11 -24.5t27 -10.5h298q16 0 27 10.5t11 24.5v327q-2 6 -8 6zM73 101q7 0 7 7v320q0 9 7 14.5t16 5.5h69l-5 -11h-1h-50q-7 0 -7 -6v-366q0 -6 7 -6h273q6 0 6 6v366q0 6 -6 6h-50h-1l-5 11h69q9 0 16 -5.5t7 -14.5v-15
q0 -7 7 -7t7 7v15q0 14 -11 24.5t-27 10.5h-74l-4 8q-4 4 -7 4h-30q-2 13 -11.5 22t-22.5 9t-22.5 -9t-11.5 -23h-30q-4 0 -7 -4l-4 -8h-74q-16 0 -27 -10.5t-11 -24.5v-320q0 -6 8 -6zM345 399q3 0 5 3q3 3 1 7l-7 15h37v-351h-258v350h37l-6 -15q-2 -2 0 -6q1 -4 6 -4h185
v1zM252 492q17 0 19 -18h-38q2 18 19 18zM193 461h119l22 -48h-163zM287 133l-15 -18l-15 18q-5 3 -11 0q-5 -5 0 -10l20 -23q1 -2 5 -2t5 2l16 17l15 -17q1 -2 5 -2t5 2l16 17l15 -17q1 -2 5 -2t5 2q5 3 0 10l-20 23q-2 2 -5 2t-5 -2l-16 -18l-15 18q-4 4 -10 0zM73 71
q4 0 5 2q2 2 2 5t-2 5q-5 5 -10 0q-3 -3 -3 -5t3 -5q1 -2 5 -2z"/>
    </svg>
    <svg id="biologie">
      <path d="M438 88l18 -11q0 2 2 5.5t3 4.5l-18 10q-1 -1 -2.5 -4.5t-2.5 -4.5zM156 376l-10 18q-3 -1 -19 -12l12 -17q8 7 17 11zM123 353l-13 15q-3 -2 -16 -15l15 -15q5 8 14 15zM75 290l-19 9q-7 -11 -9 -20l19 -7zM60 253l-20 5q-1 -7 -5 -21l21 -4q0 3 2 9.5t2 10.5zM192 393
l-7 20q-11 -3 -21 -9l9 -18q7 4 19 7zM52 197v7q0 2 0.5 5t0.5 5l-21 2q0 -2 -0.5 -5.5t-0.5 -5.5v-8v-4h21v4zM455 271l19 8q-1 4 -4 10.5t-5 9.5l-19 -9q1 -3 4.5 -9.5t4.5 -9.5zM395 382l-18 12l-11 -19q14 -8 16 -10zM357 404l-21 9l-7 -20q12 -3 19 -7zM412 338l16 15
q-10 10 -16 15l-14 -15q12 -12 14 -15zM465 233l21 3q-1 5 -5 22l-20 -6q2 -5 4 -19zM452 115l19 -8q6 14 8 20l-20 7q-3 -12 -7 -19zM442 336l-16 -12l6 -9t5 -8l18 11q-8 12 -13 18zM464 153l20 -5q2 8 4 22l-21 2q-1 -3 -2 -9.5t-1 -9.5zM54 173l-21 -2q1 -8 3 -22l21 5
q-1 3 -2 9.5t-1 9.5zM62 134l-20 -6q1 -4 3.5 -11t3.5 -9l20 7q-1 4 -3.5 10.5t-3.5 8.5zM80 336q-3 -3 -13 -18l18 -11q4 9 11 17zM489 214l-21 -1v-16v-4l21 -1v5v17zM60 87l3 -6q1 -3 2 -4l18 11l-2.5 5t-2.5 4zM427 201q0 52 -36.5 89t-87.5 39v71q1 0 3.5 -0.5
t3.5 -0.5l5 20l-12 3v21h-11v10h11v21h-11v38h-81v-38h-10v-21h10v-10h-10v-227h10v-44h81v44h11v92q43 -2 73 -33t30 -74q0 -59 -49 -89v11h-200v-21h140v-33h-182q-11 0 -18.5 -7.5t-7.5 -18.5v-43h327v43q0 11 -8 18.5t-18 7.5h-33v19q31 15 50.5 45.5t19.5 67.5z
M271 193h-39v23h39v-23zM271 443h-39v10h39v-10zM271 474h-39v17h39v-17zM390 48q5 0 5 -5v-23h-285v23q0 5 5 5h275z"/>
    </svg>
    <svg id="courbe">
      <path d="M13 113q-13 0 -13 12q0 13 13 13q7 0 14 4t15.5 24.5t9.5 55.5l1 31q3 81 7.5 110t20.5 34q11 3 22 -3q26 -18 34 -104q1 -29 14 -39q3 -2 7 -2q2 1 5.5 5.5t8.5 11t8 9.5q33 48 58 50q26 2 52 -17t70 -66q30 -32 72.5 -46t66.5 -14q13 0 13 -13t-13 -13q-30 0 -77 15.5
t-82 52.5q-39 42 -60.5 59.5t-38.5 15.5q-11 -1 -40 -40q-25 -34 -39 -36q-16 -2 -27 7q-21 18 -24 58q-6 72 -21 83q-8 -14 -10 -118l-1 -32q-1 -34 -8.5 -57.5t-19 -33.5t-20.5 -13.5t-18 -3.5z"/>
    </svg>
    <svg id="euro-symbole">
      <path d="M256 513h-10v-20h10q97 0 166.5 -69t69.5 -166q0 -98 -69 -167t-167 -69t-167 69t-69 167v9h-20v-10q0 -106 75 -181t181 -75t181 75t75 181t-75 181t-181 75zM192 484l-6 19q-2 0 -19 -6l7 -19zM125 453l-12 17q-1 -1 -7 -5t-9 -7l13 -16q7 6 15 11zM157 471l-9 18
q-14 -7 -17 -9l10 -17zM228 491l-3 20q-12 -2 -20 -4l4 -19q7 1 19 3zM35 339l-19 7q-6 -17 -6 -19l19 -6q1 2 2 5.5t2 6.5zM50 372l-18 10l-9 -18l19 -8q3 8 8 16zM96 430l-14 15l-14 -14l15 -14zM25 303l-20 4q-1 -6 -3 -20l20 -2q0 2 0.5 6t1 7t1.5 5zM71 403l-16 12
q-2 -2 -6 -7.5t-6 -8.5l17 -11q3 5 11 15zM81 257q0 -73 51 -124t124 -51t124 51t51 124t-51 124t-124 51t-124 -51t-51 -124zM157 250h18v16h-18v22h22q9 32 35 50t58 18q19 0 40 -8l-15 -39q-9 4 -24 4q-28 0 -42 -25h51l-8 -22h-50q-2 -11 0 -16h45l-7 -22h-33
q11 -27 44 -27q19 0 28 8l16 -41q-20 -10 -46 -10q-79 0 -94 70h-21v22h1z"/>
    </svg>
    <svg id="fiche-1">
      <path d="M249 486q-7 0 -7 -6q0 -7 7 -7q6 0 6 7q0 6 -6 6zM396 472h-63v-19h63q11 0 19 -7.5t8 -18.5v-381q0 -11 -8 -19t-19 -8h-281q-11 0 -19 8t-8 19v381q0 11 8 18.5t19 7.5h48v19h-48q-19 0 -32 -13.5t-13 -31.5v-381q0 -19 13 -32t32 -13h281q19 0 32 13t13 32v381
q0 18 -13 31.5t-32 13.5zM126 57h261v362h-71v51h-36q0 2 0.5 5t0.5 4q0 14 -10 23q-9 9 -22 9q-14 0 -23.5 -9.5t-9.5 -22.5q0 -1 0.5 -4t0.5 -5h-33v-51h-58v-362zM203 452h26l4 6l7 11q-5 5 -5 11q0 14 14 14h1q15 0 15 -14q0 -6 -5 -11l7 -11l3 -6h29v-33h-95zM144 400
h40v-7h132v7h53v-324h-225v324zM180 196h150v-19h-150v19zM180 247h150v-19h-150v19zM180 299h150v-19h-150v19zM180 350h150v-19h-150v19zM180 144h150v-19h-150v19z"/>
    </svg>
    <svg id="matin">
      <path d="M257 359q3 0 9 -0.5t9 -0.5v57q0 7 -5.5 12.5t-12.5 5.5q-17 0 -17 -18v-57q5 1 17 1zM172 338q11 7 33 14l-22 52q-7 16 -24 10q-16 -7 -9 -24zM117 293q16 18 25 25l-40 40q-12 12 -25 0t0 -25zM76 178q0 3 0.5 9t0.5 9h-57q-7 0 -12 -5.5t-5 -12.5t5 -12.5t12 -5.5h57
q-1 6 -1 18zM31 253l53 -22q8 22 14 33l-53 22q-15 7 -23 -10q-3 -7 -0.5 -14t9.5 -9zM342 338l22 53q7 16 -10 23q-16 7 -23 -10l-22 -52q15 -5 33 -14zM430 230l53 22q15 7 10 23q-7 16 -24 10l-53 -22q10 -16 14 -33zM397 293l40 40q13 13 0 25q-12 13 -25 0l-40 -40
q9 -7 25 -25zM494 196h-57q2 -12 2 -18t-2 -18h57q8 0 13 5t5 13t-5 13t-13 5zM135 160q-1 6 -1 18q0 51 36 87.5t88 36.5q51 0 87.5 -36.5t36.5 -87.5q0 -3 -0.5 -9t-0.5 -9h34q1 6 1 18q0 66 -46.5 112.5t-112.5 46.5q-65 0 -112 -46.5t-47 -112.5q0 -12 1 -18h36z
M198 160l41 41v-107h35v107l41 -41l25 25l-70 71q-13 13 -25 0l-72 -71z"/>
    </svg>
    <svg id="medecin">
      <path d="M406 193q4 -12 4 -21q29 -7 29 -36q0 -16 -10.5 -26.5t-26.5 -10.5q-15 0 -26 10.5t-11 26.5q0 13 8 23t20 13q0 14 -8 28q-23 8 -44 25q-1 -11 -22 -19t-52 -8q-30 0 -51 8t-22 19q-18 -14 -41 -23q-8 -14 -9 -28q3 -1 8 -9q19 -9 31 -35q2 -7 1 -9q8 -21 8 -39
q0 -31 -18 -35q-3 -3 -7 -3h-12q-4 0 -7.5 3.5t-3.5 7.5v1q2 10 11 10h12q3 0 4 -1l1 1q1 2 1 17q0 16 -6 31q-3 1 -5 5q-12 25 -25 25q-15 0 -26 -26q-2 -4 -6 -5q-5 -14 -5 -30q0 -14 1 -17q1 0 1 -1q2 1 4 1h12q11 0 11 -10q0 -12 -11 -12h-12q-3 0 -6 3q-9 1 -15 9
q-4 7 -4 26q0 17 7 38q0 6 1 8q8 17 19 27q7 7 12 9q2 4 8 10q0 10 3 21q-8 -2 -25.5 -5.5t-23.5 -6t-17 -10t-14.5 -19.5t-7 -33t-3.5 -52q0 -32 70 -50t157 -18h1q87 0 156.5 18t69.5 50q0 30 -3.5 51.5t-6.5 33t-14.5 19.5t-15.5 9.5t-23 5.5t-25 5zM387 52q0 -4 -4 -4
h-22v-21q0 -4 -3 -4h-22q-3 0 -3 4v21h-22q-4 0 -4 4v21q0 4 4 4h22v21q0 4 3 4h22q3 0 3 -4v-21h22q4 0 4 -4v-21zM168 321q19 -49 52 -75q23 -18 48 -18q27 0 48 18q33 26 52 75q12 6 17 32q5 31 -7 36q0 3 -1 9t-1 9q-4 67 -41 83q-25 22 -67 22q-40 0 -67 -20
q-42 -18 -43 -97v-5q-13 -3 -8 -37q7 -29 18 -32zM419 136q0 -7 -5 -12t-12 -5t-12 5t-5 12t5 12t12 5t12 -5t5 -12z"/>
    </svg>
    <svg id="medicament">
      <path d="M478 396v56q0 26 -18 42q-16 18 -42 18q-24 0 -41.5 -17.5t-17.5 -41.5v-136q0 -4 1 -6q2 -22 19 -37.5t40 -15.5h6h1h3l2 1q17 3 30 16q10 10 16 29v5v2l1 3v3v79zM380 453q0 16 11.5 27.5t27.5 11.5q17 0 27 -12q11 -11 11 -27v-57h-77v57zM457 313q0 -2 -1 -4
q-5 -23 -29 -30h-4h-4q-16 0 -27.5 11t-11.5 27v58h77v-58v-4zM271 397h8v100h-186v-100h8q-60 -42 -60 -115v-258q0 -11 7.5 -18t18.5 -7h238q10 0 19 7q7 7 7 18v258q1 34 -15 64.5t-45 50.5zM114 476h17v-32h21v32h24v-32h20v32h24v-32h21v32h17v-58h-145v58h1zM311 24
q0 -1 -2 -3q0 -2 -3 -2h-239q-5 0 -5 5v258q0 33 16.5 61t45.5 44l5 3v6h114v-6l6 -3q29 -16 45.5 -44t16.5 -61v-258zM187 296q-39 0 -66.5 -27t-27.5 -66t27.5 -66t66.5 -27q38 0 65.5 27t27.5 66q0 38 -27.5 65.5t-65.5 27.5zM247 184h-41v-41h-39v41h-41v38h41v41h39
v-41h41v-38z"/>
    </svg>
    <svg id="nuit">
      <path d="M268 325l1 -1h1q16 -14 30 -20q6 -16 20 -32q12 -14 28 -2l2 2q10 12 20 31q16 6 31 20q7 4 7 12.5t-5 14.5l-1 2q-12 10 -31 20q-4 12 -19 31q-7 7 -16 7q-8 0 -15 -7q-15 -19 -19 -31q-18 -7 -32 -19t-2 -28zM386 114q-36 1 -71 19q-18 9 -27 -8q-9 -18 8 -27l2 -1
q10 -5 37 -14q-48 -27 -102 -27q-82 1 -138.5 59.5t-55.5 140.5q1 73 48 126.5t118 64.5q-46 -60 -47 -134q-1 -52 22 -99t62 -80q14 -14 28 1q13 15 -2 28q-71 60 -71 150q1 82 68 142q15 15 1 28q-4 6 -14 6h-13q-98 1 -167.5 -67t-71.5 -165q-2 -98 66.5 -168t166.5 -71
q95 -2 165 62q14 14 1 28q-4 4 -13 6zM509 433q0 2 -2 2q-5 5 -23 14q-9 18 -14 24q-7 7 -15 7q-9 0 -14 -7q-7 -8 -14 -24q-16 -6 -24 -13q-15 -11 -2 -28q1 0 1 -0.5t1 -0.5q5 -5 23 -14q11 -21 13 -24q13 -15 28 -2l2 2q9 9 14 23q15 5 24 14q15 13 2 27zM452 233
q-10 8 -24 13q-5 14 -13 24q-7 8 -16 7q-8 0 -14 -7t-14 -23q-20 -10 -23 -13q-16 -13 -3 -28l2 -2q11 -10 23 -14q5 -11 13 -24q14 -16 28 -2q1 0 3 2q8 9 13 23q16 7 24 14q15 12 2 28q0 1 -1 2z"/>
    </svg>
    <svg id="poids">
      <path d="M155 366l53 -64q14 12 33 17l10 66q0 8 8 8q5 1 8 -2q1 -1 4 -6l11 -66q17 -4 33 -17l53 64q-44 44 -106.5 44t-106.5 -44zM405 461h-287q-23 0 -39 -16.5t-16 -39.5v-286q0 -23 16 -39.5t39 -16.5h286q23 0 39.5 16.5t16.5 39.5v286q1 23 -15.5 39.5t-39.5 16.5z
M390 360l-66 -80q-1 -2 -7 -4q-4 0 -8 4l-3 3q-19 18 -46 17t-46 -20q-2 -4 -7 -4q-4 0 -8 4l-66 80q-6 7 1 14q51 56 128 56t128 -56q6 -8 0 -14z"/>
    </svg>
    <svg id="ressenti"
    >
      <path d="M412 437h15v-3q0 -7 8 -7q7 0 7 7v3h3q8 0 8 8q0 7 -8 7h-3v14q0 8 -7 8q-8 0 -8 -8v-14h-15q-7 0 -7 -8q2 -7 7 -7zM106 269q2 -3 6 -3t5 3l24 33q3 3 1 7t-7 4h-14v88q0 7 -7 7q-8 0 -8 -7v-87h-20q-4 0 -6 -4q0 -6 1 -8zM121 299l-9 -13l-10 13h19zM121 201
q0 9 -6.5 15.5t-15.5 6.5t-15.5 -6.5t-6.5 -15.5t6.5 -15t15.5 -6t15.5 6t6.5 15zM457 212q-6 4 -10 -2l-16 -26v162q0 8 -8 8q-7 0 -7 -8v-163l-17 27q-4 6 -10 2q-7 -4 -3 -10l30 -48q3 -3 7 -3q3 0 6 3l30 48q6 6 -2 10zM238 287q13 12 34 0q7 -2 10 3q3 7 -3 10
q-8 4 -16.5 5.5t-14.5 0.5t-10.5 -2.5t-7.5 -3.5l-2 -2q-6 -6 0 -11q2 -2 5 -2q1 0 2.5 0.5t2.5 1.5zM292 350h-10q-8 0 -8 -8q0 -7 8 -7h10q5 0 7 4t0 7.5t-7 3.5zM420 19h-23q0 105 -44 175q-18 28 -51 35l-10 27q45 23 45 73v20q25 22 27 60q0 24 -9 40q3 7 4.5 15.5
t2 15t0 12t-1.5 9.5v4q0 5 -7 5q-4 0 -7 -5q-1 -2 -3 -5t-12 -8t-28 0q-103 20 -140 -49q-22 -42 10 -106v-8q0 -24 13.5 -44.5t35.5 -30.5l-2 -9q-45 -10 -67 -52q-20 -40 -27 -174h-22q-7 0 -7 -7t7 -7h316q8 0 8 7q-2 7 -8 7zM336 370q-3 25 -18 44q17 6 27 19l1 1
q3 -9 3 -24q-1 -21 -13 -40zM177 385v-1q-1 -4 -3 -14q-12 41 1 66q24 47 86 47q20 0 39 -4q31 -6 48 7q0 -27 -14 -45q-11 -13 -28 -17h-3q-14 -2 -20 -2q-89 -2 -106 -37zM187 329v7q1 18 2 32q0 15 19 25q26 14 76 14q5 0 19 2q5 -5 8 -9.5t5 -10.5t3.5 -10t2 -12
t0.5 -11v-13v-13q0 -28 -19.5 -48t-47.5 -20q-11 0 -20 3q-2 2 -3 2h-2q-19 7 -31 24t-12 38zM287 228q-41 -11 -53 12l2 9q6 -2 18 -2t24 3zM344 19l-19 141q0 7 -8 7q-6 -1 -6 -8l19 -140h-132v142q0 7 -7 7q-8 0 -8 -7v-142h-43q6 132 25 168q17 34 57 44q15 -21 44 -21
q12 0 30 6q33 -13 44 -30q41 -66 41 -167h-37zM273 362q26 -14 27 -14q6 0 7.5 5.5t-3.5 8.5l-24 13q-6 3 -10 -2q-3 -5 3 -11zM231 342q0 8 -7 8h-7l23 12q7 4 3 10t-10 3l-24 -13q-5 -4 -2 -10q1 -3 5 -3q-3 -1 -3 -6q0 -7 8 -7h7q7 0 7 6zM253 313q7 0 7 8v33q0 7 -7 7
q-8 0 -8 -7v-33q0 -8 8 -8z"/>
    </svg>
    <svg id="ressentie">
      <path d="M247 509h20v-30h-20v30zM316 466l10 28l19 -7l-10 -28zM376 430l19 23l15 -13l-19 -23zM419 375l26 16l10 -18l-26 -15zM442 310l30 5l3 -20l-29 -5zM77 117l19 23l15 -13l-19 -23zM32 183l26 15l10 -17l-26 -15zM12 262l30 5l3 -20l-29 -5zM17 322l3 20l30 -6l-4 -19z
M45 397l10 17l26 -15l-10 -17zM98 458l15 12l20 -23l-16 -13zM168 497l19 7l10 -29l-18 -6zM434 270v4q0 76 -54 130.5t-131 54.5t-131.5 -54t-54.5 -131q0 -72 50 -127v-145h22v154l-1 2q-48 48 -48 115t48 115t115 48t115 -48t48 -115v-7v-2l49 -87h-35v-73
q0 -16 -11.5 -27.5t-27.5 -11.5h-79v-64h23v41h56q26 0 44 18t18 44v50h51zM389 272v11l-20 -2v-9q0 -49 -35 -84t-84 -35t-84 35t-35 84t35 84t84 35q7 0 9 -1l2 20q-1 0 -5 0.5t-6 0.5q-57 0 -97.5 -40.5t-40.5 -98.5t40.5 -98.5t97.5 -40.5q58 0 98.5 40.5t40.5 98.5z
M386 304q-4 14 -7 20l-19 -8q5 -13 6 -17zM283 407l-5 -20q6 -1 18 -5l8 18q-7 3 -21 7zM341 349q8 -10 11 -16l17 11q-8 12 -13 17zM341 377q-6 5 -18 13l-10 -17q5 -3 15 -11zM154 272v-11l20 2v9q0 32 22.5 54.5t53.5 22.5q32 0 54.5 -22.5t22.5 -54.5t-22.5 -54.5
t-54.5 -22.5q-5 0 -9 1l-2 -20q3 -1 11 -1q40 0 68.5 28.5t28.5 68.5t-28.5 68.5t-68.5 28.5t-68 -28.5t-28 -68.5zM174 213l15 12q-4 5 -10 17l-19 -7q10 -17 14 -22zM192 195q8 -7 22 -14l7 19q-12 6 -17 10zM303 272q0 22 -15.5 37t-37.5 15t-37 -15t-15 -37t15 -37
t37 -15t37.5 15t15.5 37z"/>
    </svg>
    <svg id="suivi">
      <path d="M47 426q0 4 2 4h405q2 0 2 -4v-55h20v55q0 10 -6.5 16.5t-15.5 6.5h-405q-9 0 -15.5 -6.5t-6.5 -16.5v-87h20v87zM122 183v25h25v33h-25v25h-33v-25h-26v-33h26v-25h33zM171 241h157v-20h-157v20zM171 203h100v-20h-100v20zM480 163q-78 24 -156 0q-13 -5 -22 -18t-9 -28
v-88h50v59h2v-58h115v58h1v-58h50v87q0 15 -9 28t-22 18zM493 47h-14v58h-37v-58h-80v58h-37v-58h-14v70q0 9 6 18t14 11q71 23 143 0q20 -7 20 -29v-70h-1zM338 245q0 -27 19 -45.5t45 -18.5t45 18.5t19 45.5q0 26 -19 44.5t-45 18.5t-45 -18.5t-19 -44.5zM448 245
q0 -19 -13.5 -32.5t-32.5 -13.5t-32.5 13.5t-13.5 32.5t13.5 32.5t32.5 13.5t32.5 -13.5t13.5 -32.5zM44 102l-25 193q0 4 3 4h242l18 32h199q3 0 3 -4l-11 -90l19 -2l11 90v2q0 9 -6.5 16t-15.5 7h-211l-17 -32h-231q-9 0 -15.5 -6.5t-6.5 -16.5l24 -194q1 -9 7.5 -15.5
t14.5 -6.5h239v19h-239q-2 0 -2 4z"/>
    </svg>
    <svg id="tension">
      <path d="M13 299h106l25 38q12 16 29 16h2q18 0 28 -13l72 -83l11 22q10 20 33 20h142q18 70 -33 120l-1 2q-37 37 -88.5 37t-88.5 -37l-13 -14l-13 14q-37 37 -88.5 37t-88.5 -37l-1 -2q-51 -50 -33 -120zM316 174q-10 -19 -29 -20h-4q-17 0 -28 13l-76 88l-9 -13
q-12 -17 -31 -17h-76l174 -174l174 174h-69zM499 275h-180q-9 0 -12 -7l-27 -54l-95 111q-5 5 -11 4q-7 0 -10 -5l-32 -48h-119q-13 0 -13 -13t13 -13h126q6 0 11 5l26 40l96 -113q5 -5 11 -5h1q8 2 11 8l32 65h172q13 0 13 13q0 12 -13 12z"/>
    </svg>
    <svg id="tension-line">
      <path d="M14 292h112l26 39q10 13 23 13h2q13 0 23 -10l76 -89l15 30q8 17 27 17h143l1 4q19 70 -33 124l-2 2q-37 38 -90 38t-91 -38l-9 -9l-8 9q-37 38 -90 38t-91 -38l-2 -2q-52 -52 -33 -124zM55 411l2 1q34 34 81.5 34t81.5 -34l18 -17l17 17q34 34 82 34t82 -34l1 -1
q46 -46 31 -107h-134q-25 0 -37 -23l-7 -14l-64 75q-12 15 -32 15h-2q-21 -2 -32 -19l-23 -34h-96q-15 61 31 107zM309 179q-8 -15 -23 -16q-16 -2 -26 10l-80 93l-13 -20q-7 -13 -24 -13h-91l185 -185l185 185h-86zM392 220l-155 -155l-154 155h59q25 0 35 18l4 7l69 -81
q15 -17 37 -14t33 23l23 47h49zM493 281h-176q-11 0 -17 -11l-22 -44l-86 101q-6 7 -16 7q-11 -2 -15 -9l-30 -43h-112q-8 0 -13.5 -6t-5.5 -14t5.5 -13.5t13.5 -5.5h123q11 0 16 8l21 32l89 -104q5 -7 15 -7h2q10 2 15 11l29 59h164q8 0 13.5 6t5.5 14t-6 13.5t-13 5.5z
M493 255h-172l-33 -66q-2 -4 -5 -4t-5 3l-101 116l-30 -46q-3 -3 -5 -3h-123q-6 0 -6 7t6 7h120l33 50q2 2 5 2q4 0 6 -2l99 -115l30 62q2 3 6 3h175q7 0 7 -7t-7 -7z"/>
    </svg>
    <svg id="tension-poids">
      <path d="M243 428l7 39q0 3 5 6q3 0 4 -1q3 -3 3 -4l6 -39q13 -4 19 -10l32 38q-27 26 -64 26t-63 -26l32 -38q12 8 19 9zM171 277h170q13 0 23 9.5t10 23.5v170q0 14 -10 23.5t-23 9.5h-170q-13 0 -23 -9.5t-10 -23.5v-170q0 -14 10 -23.5t23 -9.5zM180 461q32 34 76 34
q45 0 76 -34q3 -3 0 -8l-40 -47q0 -2 -4 -2q-3 0 -4 2h-1l-1 1q-11 11 -27 10.5t-27 -11.5q-1 -2 -4 -2t-5 2l-39 47q-3 5 0 8zM121 142h60l15 21q5 9 16 9h1q10 0 16 -8l40 -47l6 13q6 11 19 11h80q12 38 -18 68v1q-21 21 -50.5 21t-50.5 -21l-7 -7l-7 7q-21 21 -50.5 21
t-49.5 -21l-2 -1q-28 -28 -18 -67zM293 71q-4 -10 -16 -12h-2q-10 0 -16 8l-43 50l-6 -7q-4 -9 -17 -9h-43l98 -99l98 99h-39zM397 128h-102q-5 0 -7 -4l-16 -31l-53 63q-3 3 -6 3q-5 0 -6 -4l-18 -27h-68q-7 0 -7 -7q0 -8 7 -8h71q4 0 7 4l14 22l55 -64q2 -3 6 -3h1
q4 2 5 4l19 37h97q7 0 7 7q2 8 -6 8z"/>
    </svg>
    <svg id="aprem">
      <path d="M257 359q3 0 9 -0.5t9 -0.5v57q0 7 -5.5 12.5t-12.5 5.5q-17 0 -17 -18v-57q5 1 17 1zM172 338q11 7 33 14l-22 52q-7 16 -24 10q-16 -7 -9 -24zM117 293q16 18 25 25l-40 40q-12 12 -25 0t0 -25zM76 178q0 3 0.5 9t0.5 9h-57q-7 0 -12 -5.5t-5 -12.5t5 -12.5t12 -5.5h57
q-1 6 -1 18zM31 253l53 -22q8 22 14 33l-53 22q-15 7 -23 -10q-3 -7 -0.5 -14t9.5 -9zM342 338l22 53q7 16 -10 23q-16 7 -23 -10l-22 -52q15 -5 33 -14zM430 230l53 22q15 7 10 23q-7 16 -24 10l-53 -22q10 -16 14 -33zM397 293l40 40q13 13 0 25q-12 13 -25 0l-40 -40
q9 -7 25 -25zM494 196h-57q2 -12 2 -18t-2 -18h57q8 0 13 5t5 13t-5 13t-13 5zM135 160q-1 6 -1 18q0 51 36 87.5t88 36.5q51 0 87.5 -36.5t36.5 -87.5q0 -3 -0.5 -9t-0.5 -9h34q1 6 1 18q0 66 -46.5 112.5t-112.5 46.5q-65 0 -112 -46.5t-47 -112.5q0 -12 1 -18h36z
M316 196l-41 -41v107h-35v-107l-41 41l-25 -25l71 -71q12 -13 25 0l71 72z"/>
    </svg>
  </defs>
</svg>
