<?xml version="1.0" encoding="utf-8"?>
<!-- Generator: Adobe Illustrator 24.0.1, SVG Export Plug-In . SVG Version: 6.00 Build 0)  -->
<svg version="1.1" id="Calque_1" xmlns="http://www.w3.org/2000/svg" xmlns:xlink="http://www.w3.org/1999/xlink" x="0px" y="0px"
	 viewBox="0 0 200 200" style="enable-background:new 0 0 200 200;" xml:space="preserve">
<style type="text/css">
	.st0{fill:#010202;}
</style>
<g>
	<rect x="98.3" y="0.2" class="st0" width="8" height="11.9"/>
	<rect x="125.1" y="9.2" transform="matrix(0.342 -0.9397 0.9397 0.342 73.8057 131.8202)" class="st0" width="11.9" height="8"/>
	
		<rect x="149.8" y="25.8" transform="matrix(0.6426 -0.7662 0.7662 0.6426 32.8583 130.0177)" class="st0" width="11.9" height="8"/>
	<rect x="167.6" y="49.8" transform="matrix(0.8659 -0.5002 0.5002 0.8659 -3.6427 94.0348)" class="st0" width="11.9" height="8"/>
	<rect x="175.9" y="78.3" transform="matrix(0.9848 -0.1738 0.1738 0.9848 -11.533 32.8657)" class="st0" width="11.9" height="8"/>
	
		<rect x="31.6" y="149.9" transform="matrix(0.6426 -0.7662 0.7662 0.6426 -104.5092 83.7907)" class="st0" width="11.9" height="8"/>
	
		<rect x="13.8" y="125.9" transform="matrix(0.8657 -0.5005 0.5005 0.8657 -62.3536 27.3415)" class="st0" width="11.9" height="8"/>
	<rect x="5.5" y="97.4" transform="matrix(0.9847 -0.1741 0.1741 0.9847 -17.4779 3.5407)" class="st0" width="11.9" height="8"/>
	<rect x="9.3" y="65.5" transform="matrix(0.1732 -0.9849 0.9849 0.1732 -59.4442 72.2057)" class="st0" width="8" height="11.9"/>
	<rect x="21.3" y="38.2" transform="matrix(0.5 -0.866 0.866 0.5 -25.6451 43.9873)" class="st0" width="8" height="11.9"/>
	<rect x="41.9" y="16.7" transform="matrix(0.7658 -0.6431 0.6431 0.7658 -3.8624 34.8155)" class="st0" width="8" height="11.9"/>
	<rect x="68.6" y="3.6" transform="matrix(0.9395 -0.3424 0.3424 0.9395 1.1078 25.433)" class="st0" width="8" height="11.9"/>
	<path class="st0" d="M169.5,95.8v-2c0-18.2-7-35.8-19.6-49c-27-28.5-72.1-29.6-100.5-2.6s-29.6,72.1-2.6,100.5v56.4h8v-59.5
		l-1.2-1.2C42,126.6,35.4,110.7,35.3,94.1c-0.1-34.9,28.1-63.2,63-63.3s63.2,28.1,63.3,63v4l18.9,32.7h-12.7v30.3
		c0,7.8-6.3,14.1-14.1,14.1H121V199h8V183h24.5c12.2,0,22.1-9.9,22.1-22.1v-22.5H194L169.5,95.8z"/>
	<path class="st0" d="M154.6,94.4h-8c0,26.1-21.1,47.2-47.2,47.2c-26.1,0-47.2-21.1-47.2-47.2s21.1-47.2,47.2-47.2v0.2
		c1.2,0,2.4,0.2,3.6,0.2l0.8-7.9c-1.5-0.2-2.9-0.2-4.4-0.2v-0.2C69,39.2,44.3,64,44.3,94.4c0,30.5,24.7,55.2,55.2,55.2
		C129.9,149.5,154.5,124.8,154.6,94.4z"/>
	<path class="st0" d="M135.1,63.9c1.7,1.8,3.1,3.8,4.4,6l6.8-4.2c-1.6-2.4-3.4-4.8-5.2-7L135.1,63.9z"/>
	<path class="st0" d="M143.1,76.5c0.8,2.3,1.6,4.6,2.2,7l7.8-1.8c-0.6-2.8-1.4-5.5-2.6-8.1L143.1,76.5z"/>
	<path class="st0" d="M112.2,41l-1.8,7.8c2.4,0.4,4.8,1.2,7,2.2l3-7.4C117.7,42.6,115,41.7,112.2,41z"/>
	<path class="st0" d="M135.1,52.8c-2.2-1.9-4.5-3.6-7-5.2l-4.2,6.8c2.1,1.3,4.1,2.8,6,4.4L135.1,52.8z"/>
	<path class="st0" d="M61,94.4h8c0-16.8,13.6-30.5,30.5-30.5s30.5,13.6,30.5,30.5c0,16.8-13.5,30.3-30.2,30.5v0
		c-1.2,0-2.4,0-3.6-0.2l-1,8c1.5,0.2,2.9,0.2,4.4,0.2v0c21.2,0,38.4-17.2,38.4-38.4c0-21.2-17.2-38.4-38.4-38.4
		C78.2,56,61,73.2,61,94.4z"/>
	<path class="st0" d="M75.2,112.7c-1.7-2.1-3-4.5-4-7l-7.4,3c1.3,3.2,2.9,6.2,5,9L75.2,112.7z"/>
	<path class="st0" d="M75.9,125.1c2.8,2,5.8,3.7,9,5l2.8-7.3c-2.5-1.1-4.8-2.4-7-4L75.9,125.1z"/>
	<path class="st0" d="M120.2,94.4c0-11.4-9.3-20.7-20.7-20.7c-11.4,0-20.7,9.2-20.7,20.7c0,0,0,0,0,0c0,11.4,9.3,20.7,20.7,20.7
		S120.2,105.9,120.2,94.4z"/>
</g>
</svg>
